<?xml version="1.0" encoding="UTF-8" standalone="no"?>
<!-- Created with Inkscape (http://www.inkscape.org/) -->

<svg
        xmlns:dc="http://purl.org/dc/elements/1.1/"
        xmlns:cc="http://creativecommons.org/ns#"
        xmlns:rdf="http://www.w3.org/1999/02/22-rdf-syntax-ns#"
        xmlns:svg="http://www.w3.org/2000/svg"
        xmlns="http://www.w3.org/2000/svg"
        xmlns:sodipodi="http://sodipodi.sourceforge.net/DTD/sodipodi-0.dtd"
        xmlns:inkscape="http://www.inkscape.org/namespaces/inkscape"
        width="103.25391mm"
        height="89.577286mm"
        viewBox="0 0 103.25391 89.577286"
        version="1.1"
        id="svg8"
        inkscape:version="0.92.3 (2405546, 2018-03-11)"
        sodipodi:docname="gbuffet.svg">
    <defs
            id="defs2"/>
    <sodipodi:namedview
            id="base"
            pagecolor="#ffffff"
            bordercolor="#666666"
            borderopacity="1.0"
            inkscape:pageopacity="0.0"
            inkscape:pageshadow="2"
            inkscape:zoom="0.98994949"
            inkscape:cx="484.52295"
            inkscape:cy="101.12825"
            inkscape:document-units="mm"
            inkscape:current-layer="layer1"
            showgrid="false"
            inkscape:window-width="1920"
            inkscape:window-height="1017"
            inkscape:window-x="1072"
            inkscape:window-y="845"
            inkscape:window-maximized="1"
            fit-margin-top="0"
            fit-margin-left="0"
            fit-margin-right="0"
            fit-margin-bottom="0"/>
    <metadata
            id="metadata5">
        <rdf:RDF>
            <cc:Work
                    rdf:about="">
                <dc:format>image/svg+xml</dc:format>
                <dc:type
                        rdf:resource="http://purl.org/dc/dcmitype/StillImage"/>
                <dc:title></dc:title>
                <cc:license
                        rdf:resource="http://creativecommons.org/licenses/by-nd/4.0/"/>
            </cc:Work>
            <cc:License
                    rdf:about="http://creativecommons.org/licenses/by-nd/4.0/">
                <cc:permits
                        rdf:resource="http://creativecommons.org/ns#Reproduction"/>
                <cc:permits
                        rdf:resource="http://creativecommons.org/ns#Distribution"/>
                <cc:requires
                        rdf:resource="http://creativecommons.org/ns#Notice"/>
                <cc:requires
                        rdf:resource="http://creativecommons.org/ns#Attribution"/>
            </cc:License>
        </rdf:RDF>
    </metadata>
    <g
            inkscape:label="Layer 1"
            inkscape:groupmode="layer"
            id="layer1"
            transform="translate(-40.046491,-101.73865)">
        <g
                id="g37"
                transform="matrix(0.48609834,0,0,0.48609834,61.627998,122.36628)">
            <path
                    id="path23"
                    style="fill:#4285f4"
                    d="M 126.47,58.12 100.17,12.38 A 11.56,11.56 0 0 0 90.31,6.5 H 37.7 a 11.55,11.55 0 0 0 -9.86,5.88 L 1.53,58 a 11.48,11.48 0 0 0 0,11.44 l 26.3,46 a 11.77,11.77 0 0 0 9.86,6.09 H 90.3 a 11.73,11.73 0 0 0 9.87,-6.06 l 26.3,-45.74 a 11.73,11.73 0 0 0 0,-11.61 z"
                    inkscape:connector-curvature="0"/>
            <path
                    id="path25"
                    style="opacity:0.07000002;isolation:isolate"
                    d="M 79.66,38.74 53,43 l -5.24,17.5 -8.08,-7 8.48,35.63 32.34,32.37 h 9.8 a 11.73,11.73 0 0 0 9.87,-6.06 L 120.6,79.91 Z"
                    inkscape:connector-curvature="0"/>
            <g
                    id="g35">
                <path
                        id="path27"
                        style="fill:#ffffff"
                        d="m 71.76,64.08 a 7.93,7.93 0 1 1 -7.93,-7.93 7.93,7.93 0 0 1 7.93,7.93 v 0"
                        inkscape:connector-curvature="0"/>
                <path
                        id="path29"
                        style="fill:#ffffff"
                        d="M 93.19,62 87.25,51.69 H 75.14 L 82.23,64 80.32,67.33 73.11,79.89 70.88,83.76 67,90.46 h 9.84 a 4,4 0 0 0 3.44,-2 L 93.19,66 a 4,4 0 0 0 0,-3.95"
                        inkscape:connector-curvature="0"/>
                <path
                        id="path31"
                        style="fill:#ffffff"
                        d="M 54.85,79.89 45.73,64 39.67,53.51 34.77,62 a 4,4 0 0 0 0,3.95 l 12.89,22.52 a 4,4 0 0 0 3.44,2 H 62.93 L 69,79.89 Z"
                        inkscape:connector-curvature="0"/>
                <path
                        id="path33"
                        style="fill:#ffffff"
                        d="m 85.23,48.17 -4.92,-8.58 a 4,4 0 0 0 -3.44,-2 H 51.09 a 4,4 0 0 0 -3.44,2 L 41.68,50 l 6.07,10.51 7.1,-12.34 z"
                        inkscape:connector-curvature="0"/>
            </g>
        </g>
        <path
                id="path62"
                d="M 132.56347,170.19674 49.670312,148.54535 c -2.048536,-0.43683 -2.268405,-2.28666 -2.268405,-2.28666 6.124707,-22.51141 28.080094,-36.54544 50.757404,-33.52152 l 0.81796,-3.03741 -0.20611,-0.0546 c -2.59146,-0.68951 -4.67426,-1.59041 -4.63312,-2.00674 l 0.10319,-0.37531 c 1.17541,-4.35477 6.963299,-6.60056 12.923039,-5.01689 5.95974,1.58353 9.83668,6.40265 8.66126,10.76417 l -0.0962,0.37531 c -0.17185,0.38233 -2.4265,0.12965 -5.01809,-0.55959 l -0.22688,-0.0614 -0.81796,3.03067 c 21.1717,8.64156 33.13245,31.69907 27.09717,54.23773 0,0 -0.76292,1.69968 -4.19999,0.16378 m 5.93198,21.11904 H 44.844577 c -2.646495,0 -4.798086,-2.13638 -4.798086,-4.77123 0,-2.63486 2.151459,-4.76449 4.798086,-4.76449 h 93.650983 c 2.65338,0 4.80484,2.12963 4.80484,4.76449 0,2.63485 -2.15146,4.77123 -4.80484,4.77123 z"
                inkscape:connector-curvature="0"
                style="fill:#000000;fill-opacity:0.78391957;stroke-width:0.13229166"
                sodipodi:nodetypes="ccccccccccccccccsssssss"/>
    </g>
</svg>
